<svg id="Layer_1" data-name="Layer 1" xmlns="http://www.w3.org/2000/svg" width="7.5in" height="7.5in" viewBox="0 0 540 540">
  <title>NIMIQ</title>
  <circle cx="269.78" cy="266.47" r="223.2" style="fill: #1a1a1a"/>
  <path d="M157.23,74.85q112.49-.12,225,0c36.41,63.4,73.65,126.35,110.2,189.67,1.31,1.86.07,4-.89,5.7Q436.69,364,382.07,458q-112.36.38-224.71,0Q102.81,364,47.91,270.15c-1.6-2.24-1.93-5.17,0-7.4C84.36,200.13,121,137.62,157.23,74.85ZM257,119.3c0,11.77,0,23.54,0,35.32-17.79,4.09-35.44,13.61-44.56,30-11.94,20.81-12.38,50,4.59,68.23,17.88,19.94,44.74,27,66.26,41.82,7.48,5.47,14.42,14.19,12.39,24.07-0.35,9.37-7.41,18-16.8,19.5-22.23,4.81-44-5.24-61.25-18.47-7.47,11-14.56,22.16-21.82,33.26,17.15,14.72,39,22.88,61.18,26.2,0.06,11.45,0,22.91.07,34.36q16.32,0,32.65,0c0-12,0-24,.13-36.06A82.17,82.17,0,0,0,314.11,368c23-13.06,33.86-42.18,28.79-67.59-2.2-15.48-13.18-28.25-25.39-37.23-15.5-10.76-33.45-17.2-49.71-26.6-6.65-4.05-13.47-9.47-15.32-17.4-0.5-6.68-.22-14.49,5.19-19.29,7.62-7.41,19.21-6.56,28.93-5.66,11.58,1.31,21,8.9,29.69,16,8.08-9.57,16.74-18.64,24.73-28.3-13.76-14.17-31.3-25.33-51.27-27.65-0.07-11.65-.05-23.31-0.08-35Q273.33,119.33,257,119.3Z" style="fill: #e2a62f"/>
</svg>
